Patient4_TMGait_0pt7_02_left_07_EMG.mot
version=1
nRows=16
nColumns=33
inDegrees=no
endheader
time	1LAddLong	2LGlutMax	3LGlutMed	4LIliopsoas	5LSemiMemb	6LBicFemLong	7LRecFem	8LVastMed	9LVastLat	10LGasMed	11LTibAnt	12lTibPost	13LPeroneusLong	14LSol	15LExtDigLong	16LFlexDigLong	17RAddLong	18RGlutMax	19RGlutMed	20RIliopsoas	21RSemiMemb	22RBicFemLong	23RRecFem	24RVastMed	25RVastLat	26RGasMed	27RTibAnt	28RTibPost	29RPeroneusLong	30RSol	31RExtDigLong	32RFlexDigLong
8.813	0.028381	0.13855	-0.024719	0.006866	0.039215	0.054932	0.02655	0.004578	0.074005	-0.025177	-0.005951	-0.007324	0.06897	-0.034637	-0.059967	0.005341	-0.024567	0.37445	-0.31448	0.29831	0.023041	-0.11231	0.096588	0.036469	0	-0.045319	0.040741	-0.041504	-0.41901	0.21408	-0.002441	-0.012512
8.814	0.015717	0.11765	-0.046692	-0.017853	-0.002594	0.06134	0.018311	0.007935	0.079956	-0.019226	0.006714	0.004272	0.071716	-0.094757	0.02243	0.000458	-0.002441	0.47363	-0.076599	0.34744	-0.005035	-0.16083	0.11444	-0.031433	0.007935	-0.11536	0.050049	-0.038605	-0.15366	0.11353	-0.002289	-0.018311
8.815	0.014191	0.12314	-0.045624	0.007782	-0.025787	0.06134	0.018005	0.009613	0.074463	-0.021057	0.016785	-0.005035	0.044403	-0.14374	0.077667	-0.001068	0.024261	0.5365	0.58563	0.34378	0.048981	-0.22339	0.2243	-0.11444	-0.002289	-0.097504	0.008698	-0.07309	0.3157	-0.16312	-0.002899	-0.011139
8.816	0.016937	0.15243	-0.04715	-0.003967	-0.042877	0.043488	0.00946	0.003662	0.062866	-0.017395	0.007782	-0.001221	-0.003662	-0.086365	0.099792	-0.006256	0.024261	0.56198	0.56686	0.050507	0.1413	-0.20371	0.27237	-0.13046	-0.019531	-0.021515	0.010223	-0.10208	0.29755	0.10574	-0.004425	-0.010529
8.817	0.015869	0.1738	-0.085144	0.015411	-0.031586	0.022736	0.012817	0.016785	0.061951	-0.032654	0.003815	0.001831	-0.013428	-0.029602	0.090332	-0.000763	0.001984	0.56747	0.10101	-0.024109	0.14572	-0.17883	0.19409	-0.2092	-0.008087	0.02655	-0.001068	-0.007019	0.027008	0.48248	-0.002136	-0.010376
8.818	0.013885	0.15472	-0.079803	0.005646	-0.002136	0.026093	0.010071	0.041046	0.040588	-0.036011	0.011902	0.008392	0.014954	-0.041656	0.078278	-0.002747	-0.028076	0.57434	-0.11673	-0.068359	-0.050049	-0.061646	0.14694	-0.28259	-0.065002	0.065918	0.055237	0.052185	-0.26093	0.10895	-0.003204	-0.010223
8.819	0.009308	0.15793	-0.12207	0.012054	-0.005341	0.029602	-0.012665	-0.028992	0.036774	-0.069733	0.016785	-0.006409	0.024261	-0.058899	-0.004425	-0.01236	-0.024414	0.53955	0.22125	-0.03479	-0.25146	-0.02594	0.06546	-0.28259	-0.1181	0.068817	0.10605	-0.16632	-0.3447	-0.4126	-0.00351	-0.00946
8.82	0.010986	0.14252	-0.11185	0.001526	-0.035248	0.02655	-0.010223	-0.005798	0.028534	-0.083618	0.007782	-0.014496	0.003662	-0.079346	-0.048218	-0.011444	0.025787	0.50491	0.62866	0.042877	-0.39368	-0.045166	-0.19592	-0.37079	-0.065155	0.049133	0.071869	0.22629	-0.0354	-0.005951	-0.001526	-0.009613
8.821	0.00473	0.14206	-0.093536	0.00885	-0.057983	0.009766	-0.004425	0.010376	0.034027	-0.057068	0.004272	-0.006714	0.02182	-0.0354	-0.068665	-0.002289	0.013123	0.48019	0.24933	0.003815	-0.32501	0.024414	-0.14191	-0.2475	0.01709	0.054779	0.032501	0.1767	0.16602	0.37628	-0.001678	-0.010071
8.822	-0.011597	0.18051	-0.037842	-0.00946	-0.051727	0.029449	-0.003052	0.011902	0.036316	-0.036011	0.010223	-0.003662	0.12222	-0.00412	0.44449	-0.011597	-0.005493	0.52612	0.068207	-0.13275	0.10712	0.10864	-0.16357	0.24124	0.1059	-0.058746	0.027161	0.029297	-0.049286	0.032043	0	-0.016479
8.823	-0.009308	0.1889	0.022888	-0.006409	-0.067749	0.024414	-0.023956	0.007629	0.039215	-0.007629	0.088654	-0.008392	0.11887	-0.016632	-0.054932	0.001068	-0.02243	0.50125	0.46326	-0.13763	0.31021	0.12604	-0.28076	0.29877	0.22888	-0.081635	0.15839	-0.24567	-0.18906	0.10025	0.002441	-0.014343
8.824	0.017395	0.15869	-0.014954	0.013428	0.00885	0.023346	-0.030518	0.003815	0.040588	0.029602	0.13504	0.013733	0.028992	-0.030212	-0.006409	0.003662	-0.025177	0.39261	0.24033	0.011749	0.42374	0.029907	-0.055084	0.44586	0.24384	-0.010681	0.24612	-0.14648	-0.025635	0.17822	-0.001831	-0.005951
8.825	0.029144	0.22018	-0.025482	0.003052	0.007629	0.053711	-0.042877	-0.004883	0.047607	0.02594	0.13992	-0.005493	-0.002289	-0.056305	-0.067444	0.001678	-0.026398	0.30914	-0.46967	0.21347	0.34775	0.067291	0.15243	0.40939	0.15243	0.016479	0.29739	0.16174	0.041199	-0.3122	-0.001678	-0.016174
8.826	0.044861	0.20615	-0.03418	0.00412	-0.10712	0.009918	-0.028381	0.002136	0.041656	0.020752	0.10361	0.003052	-0.001984	-0.050201	-0.09903	-0.006256	-0.018005	0.27908	-0.38132	0.20813	0.15274	0.037231	0.29297	0.38849	0.071106	0.02243	0.38528	0.21561	0.017548	-0.35812	-0.002594	-0.017395
8.827	0.027924	0.17456	-0.035706	0.004883	0.007477	-0.027924	-0.015869	-0.012817	0.041809	-0.000458	0.022888	0.008698	0.021515	-0.065765	-0.088196	-0.002594	-0.010376	0.2388	-0.26321	0.10315	-0.066528	0.011597	0.2771	0.34347	0.005035	0.015869	0.16022	0.027161	0.056152	0.037994	-0.002747	-0.016785
8.828	0.048828	0.18188	-0.020447	0.016022	0.062256	-0.026245	-0.018463	-0.008392	0.03067	-0.039063	-0.16373	-0.00824	0.075378	-0.051727	-0.072174	0.004425	-0.0177	0.21149	0.028992	0.009155	-0.12558	-0.04303	0.17487	0.16525	0.067596	0.001373	-0.49347	-0.015411	0.15121	0.29785	0.000153	-0.012817
